<svg xmlns="http://www.w3.org/2000/svg" viewBox="0 0 1044.11 617.19"><defs><style>.cls-1{fill:#ff6c2f;}.cls-2,.cls-3,.cls-5,.cls-7{fill:none;}.cls-2{stroke:#000;}.cls-3,.cls-5{font-size:301.17px;stroke:#9c7fa6;stroke-width:2px;}.cls-3,.cls-5,.cls-7{stroke-miterlimit:10;}.cls-3{font-family:PlayfairDisplay-Regular, Playfair Display;}.cls-4{letter-spacing:-0.02em;}.cls-5{font-family:FiraSans-ExtraLight, Fira Sans ExtraLight;font-weight:200;}.cls-6{letter-spacing:-0.01em;}.cls-7{stroke:#ff6c2f;stroke-width:4px;}</style></defs><title>mc-logo</title><g id="Layer_3" data-name="Layer 3"><path class="cls-1" d="M663.12,678.56V633.69H633q-24.71,0-38,9.79T581.8,672.84q0,16.88,9.34,26.2t25.9,9.34Q647.46,708.38,663.12,678.56Z" transform="translate(-386.24 -206.04)"/><path class="cls-1" d="M492.14,707.15l-1.3,0a59.66,59.66,0,0,1-34.48-10.39q-15.21-10.38-24.09-31.32t-8.89-51.65q0-46,17.78-69.08c-4.11-2-8.49-3.51-12.24-5.91a96,96,0,0,0-9.75,16.86q-10.85,23.8-10.85,58.13,0,33.74,10.54,57.68t29.07,36.29q18.52,12.35,42.31,12.35c.46,0,.9,0,1.36,0" transform="translate(-386.24 -206.04)"/><rect class="cls-1" x="356.75" y="353.71" width="12.14" height="20.18"/><path class="cls-1" d="M1103.74,577.52q-14.46-20.92-42.47-20.93a54.79,54.79,0,0,0-27.71,7.07,67.64,67.64,0,0,0-21.38,19.73l.1,13.44.8.31V596q9.95-13.24,20.78-20.48t25.6-7.23q44,0,44,69,0,34.63-11.89,52.56t-34.49,17.92a47.13,47.13,0,0,1-24.84-6.63,61.25,61.25,0,0,1-19.13-18.67v-.15H1013l.12,14.91a59.83,59.83,0,0,0,19.73,16.56,55.19,55.19,0,0,0,26.35,6.33q28.3,0,43.67-22.14t15.36-60.69Q1118.19,598.45,1103.74,577.52Z" transform="translate(-386.24 -206.04)"/><path class="cls-2" d="M434.36,252.41" transform="translate(-386.24 -206.04)"/><path class="cls-2" d="M517.19,466.24" transform="translate(-386.24 -206.04)"/><path class="cls-1" d="M532.57,434.74m0,0-11.56,31H516.2L440.3,270.28l-7.44-18.38H437q15.64,0,25.6-.9l66.25,174.38Z" transform="translate(-386.24 -206.04)"/><path class="cls-1" d="M864.84,446.16a18,18,0,0,0,3,5.43q5,6,14.31,6t16-7.53q6.63-7.53,11.15-24.7l6,1.51q-7.53,41.55-39.15,41.56-10.25,0-16.87-2.41a31.73,31.73,0,0,1-11.74-7.53Z" transform="translate(-386.24 -206.04)"/><path class="cls-1" d="M941.15,304.92V264.56q0-13.84-5.12-20.18t-17.77-6.32v-6.33q9.63.92,18.67.91,19,0,31.32-4.22v76.5Z" transform="translate(-386.24 -206.04)"/><path class="cls-1" d="M1400.43,463.37c-10.11.24-20.24,2-27,4.54l.26-28.83-2-206.74q17.26,0,28.51-4.22V431.41a63.64,63.64,0,0,0,.23,9.35Z" transform="translate(-386.24 -206.04)"/><rect class="cls-1" x="310.14" y="159.54" width="66.33" height="5.6"/></g><g id="Layer_2" data-name="Layer 2"><text class="cls-3" transform="translate(10.09 258.2)"><tspan class="cls-4">M</tspan><tspan x="256.9" y="0">ethod</tspan></text><text class="cls-5" transform="translate(1 510.77)"><tspan class="cls-6">C</tspan><tspan x="161.73" y="0">amp</tspan></text><line class="cls-7" x1="754.12" y1="53.64" x2="827.91" y2="321.68"/></g></svg>